<?xml version="1.0" encoding="UTF-8"?>
<svg id="_레이어_1" data-name="레이어_1" xmlns="http://www.w3.org/2000/svg" version="1.1" viewBox="0 0 1024 1024">
  <!-- Generator: Adobe Illustrator 29.3.1, SVG Export Plug-In . SVG Version: 2.1.0 Build 151)  -->
  <defs>
    <style>
      .st0 {
        fill: #010101;
      }

      .st1 {
        fill: #fff;
        stroke: #000;
        stroke-miterlimit: 10;
        stroke-width: 10px;
      }

      .st2 {
        fill: #fbfcfe;
      }

      .st3 {
        fill: #1c01d6;
      }

      .st4 {
        fill: #5c37e0;
      }

      .st5 {
        fill: #fbfcfd;
      }

      .st6 {
        fill: #fafcfd;
      }

      .st7 {
        display: none;
      }

      .st8 {
        fill: #fbfbfd;
      }
    </style>
  </defs>
  <g class="st7">
    <rect class="st2" x="-1224.9" width="1024" height="1024"/>
    <g>
      <g>
        <path d="M756,569h-21v-47.5c0-25-35-20.9-35-2v49.5h-22v-83h21c.5,0-.4,8.8,0,10,15.1-20.2,57-12.6,57,15.5v57.5Z"/>
        <path d="M961,513c-.6.8-18.4,4.2-19.3,3.9-3.9-1.3-5.1-14.4-22.2-12.9-30,2.6-23.3,57.5,10.2,47.2s10.8-11.8,11.9-12.1,18.8,4.1,19.4,4.8c4.3,5-15.4,22.7-21.7,24.8-82.6,27.1-74.7-112.2,1.1-80.6,5.5,2.3,24.3,20,20.6,24.9Z"/>
        <path d="M828,450v19c-16.1-4-24.4,2.2-22,19h22v17h-22v64h-22v-64h-15v-18h15v-16.5c0-20,29.2-24.8,44-20.5Z"/>
        <rect x="841" y="486" width="22" height="83"/>
        <path class="st0" d="M847.7,450.2c19-3.5,20.6,24,4.6,25.7-17,1.9-19.3-23.1-4.6-25.7Z"/>
        <g>
          <path d="M658,569h-20c-.4,0,.7-7.8-.5-8s-4.5,4.9-6.2,5.8c-40.3,22.4-67.8-31.5-28.3-43.3,7.1-2.1,31.3-1.6,33-9s-9.2-12.9-16.2-12.2c-11.3,1-13.5,11.6-14.4,11.9s-16.7-3-17.4-3.6c-2.9-2.6,3.2-11.7,5-14,17.2-21.3,65-13.1,65,17v55.5Z"/>
          <path class="st6" d="M637,532c3.4,3.7-2.7,16.8-7.7,19.8-16.3,10-30.9-6.3-19.3-14.3,1.3-.9,26-6.5,27-5.5Z"/>
        </g>
      </g>
      <g>
        <path d="M753,593v64c4.4-3.1,26.3-33,28.5-33h25.5c-2.1,6.4-32.7,36-32.8,38.5s32.2,38.8,34.8,45.5h-26.5c-2.4,0-24.7-34.7-28.5-39-3.6-.6-1,.5-1,1.5v37.5h-23v-115h23Z"/>
        <path d="M957,646h-14.5c-4.8,0-13.5,8.4-13.5,13.5v48.5h-22v-83h20c.5,0,.7,8.7,1,9,.5.6,7.5-7.2,12.9-8.6,22.7-5.7,12.4,5.8,16.1,20.6Z"/>
        <g>
          <path d="M890,672h-60c1.8,15.8,13.5,23.1,28.8,19.3s10.9-9,12.6-9.3c3-.4,17.1,3.3,15.8,8.7-6.5,27.8-76.6,30.4-77.3-23.2-.8-61.7,88.1-57.6,80.1,4.5Z"/>
          <path class="st6" d="M869,657h-38c2.3-21.7,35.7-21.7,38,0Z"/>
        </g>
        <g>
          <path d="M710,708h-19c-.5,0-.2-7.9-.5-9-14.9,18.8-52.2,13.5-54.5-12.6-3.1-34,51.1-22.5,53.1-34,1.4-8.4-10.7-12-17.4-11.3-11.3,1.1-11.2,10.3-16,10.8s-15.1-2.4-15.7-3c-2.3-2.5,4.5-12.8,6.5-15,17.4-19.7,63.5-11,63.5,16.5v57.5Z"/>
          <path class="st6" d="M689,670c3,3.6-1.5,16.6-6.7,19.8-17,10.8-31.3-6.4-20.3-14.3,1.3-.9,26.1-6.6,27-5.5Z"/>
        </g>
      </g>
      <g>
        <path class="st4" d="M132.8,317.3c9.2-1.5,45.4-1.1,53.6,1.9s52.2,53.9,56.1,53.9,45.6-50.5,54.8-54.2c6.2-2.5,51.6-3,58.8-1.4s5,2.8,7.5,4.5c8.4,5.9,50.8,48.7,57.5,57.5s6.9,8.3,7.7,12.3c2.2,10.5,1.9,75,.3,86.8s-.8,5.8-2.6,8.4c-49.9,47.1-95.9,98.2-144.9,146.1-4.7,4.6-35.7,35.3-38.3,35.8-4.7.8-10.2-4.8-13.7-7.9-46.5-40.1-118.8-113.9-159.5-160.5s-13.2-12.8-14.5-19.5-1.7-83.4.3-90.8,3.4-5.6,4.7-7.3c6.3-8,55.3-56.7,62.5-61.5s5.6-3.5,9.8-4.2Z"/>
        <g>
          <path class="st2" d="M257,500c12.6-7.6,47.5-52.2,57.5-56.1s18.4,5.2,32.1-6.9c34.3-30.3-19.4-79.5-47-43-13.4,17.7-1.4,30.2-3,36s-60.5,57.2-60.5,62.5v47.5l-65.8-65.7c-.5-1.8-.6-19.2,0-20.6,1.6-4.2,17.7-8,19.5-27.4,4.7-49.8-75.5-41.2-59.7,7.3,4,12.5,18.6,17.8,19.1,19.1,1.5,3.9-1.1,21.7,0,27.9,2.4,14.7,87,84.7,87,91v63.5l-158.8-159.7c-1.1-3.7-1.1-72.9,0-76.6s54.4-57.1,58.2-58.8,39-1.7,42.5-.4c5.2,1.8,39.7,41.6,47.5,48.5,12,10.6,14.2,14.1,28.5,3.5,10.1-7.4,46.6-49.7,53-52s39.1-1,42.5.4,57.7,56.4,58.5,60.5.8,70.3-.3,73.8l-51.8,50.2v-15c0-26.5-47.8-37.1-58.5-8.5-10.1,26.9,14.3,51.1,41.5,42.5-11.6,6.8-76.5,84.5-82,82.5-1.1-41.9-1.1-83.9,0-126Z"/>
          <path class="st6" d="M329.7,422.7c-8,5.4-23.8-5.7-12.7-16.1s22.2,9.6,12.7,16.1Z"/>
          <path class="st5" d="M157.8,414.2c14-1.6,14.7,19.3,2.6,19.8s-16.5-18.2-2.6-19.8Z"/>
          <path class="st8" d="M332.7,522.7c-13,9-26.2-17.1-7.4-16.6s14.4,11.7,7.4,16.6Z"/>
          <path class="st3" d="M257,500v126c-5.9-2.2,1.8-113.1,0-126Z"/>
        </g>
      </g>
      <g>
        <path d="M527,595c3.2,1.5,28.9,57.7,32,59s29.9-54.6,33-59h27v113h-22v-77c-4.9,6-30.3,55.2-33.5,56.1s-8.1.1-10-1.1c-4.8-3-23.4-46.4-30.5-53v75h-23v-113c5.2,1.2,23.5-1.6,27,0Z"/>
        <g>
          <polygon points="573 456 573 476 523 476 523 505 569 505 569 526 523 526 523 569 500 569 500 456 573 456"/>
          <g>
            <rect x="625" y="317" width="23" height="113"/>
            <g>
              <path d="M497,430c7.3-12,37.7-111.4,43.5-113.1,1.2-.4,23.4-.5,24.4.2l41.1,112.9h-23c-1.2,0-5.3-21.2-8.4-22.1s-43.8-.7-45.9.2-7.3,21.9-9.1,21.9h-22.5Z"/>
              <path class="st6" d="M568,388h-32c2.8-5.3,13.1-45.4,15.5-46s13.7,42.8,16.5,46Z"/>
            </g>
          </g>
        </g>
      </g>
    </g>
  </g>
  <circle class="st1" cx="512" cy="512" r="500"/>
  <path d="M760.1,543.7h-21v-47.5c0-25-35-20.9-35-2v49.5h-22v-83h21c.5,0-.4,8.8,0,10,15.1-20.2,57-12.6,57,15.5v57.5Z"/>
  <path d="M965.1,487.7c-.6.8-18.4,4.2-19.3,3.9-3.9-1.3-5.1-14.4-22.2-12.9-30,2.6-23.3,57.5,10.2,47.2,5.9-1.8,10.8-11.8,11.9-12.1s18.8,4.1,19.4,4.8c4.3,5-15.4,22.7-21.7,24.8-82.6,27.1-74.7-112.2,1.1-80.6,5.5,2.3,24.3,20,20.6,24.9Z"/>
  <path d="M832.1,424.7v19c-16.1-4-24.4,2.2-22,19h22v17h-22v64h-22v-64h-15v-18h15v-16.5c0-20,29.2-24.8,44-20.5Z"/>
  <rect x="845.1" y="460.7" width="22" height="83"/>
  <path class="st0" d="M851.8,424.9c19-3.5,20.6,24,4.6,25.7-17,1.9-19.3-23.1-4.6-25.7Z"/>
  <path d="M662.1,543.7h-20c-.4,0,.7-7.8-.5-8s-4.5,4.9-6.2,5.8c-40.3,22.4-67.8-31.5-28.3-43.3,7.1-2.1,31.3-1.6,33-9s-9.2-12.9-16.2-12.2c-11.3,1-13.5,11.6-14.4,11.9s-16.7-3-17.4-3.6c-2.9-2.6,3.2-11.7,5-14,17.2-21.3,65-13.1,65,17v55.5Z"/>
  <path class="st6" d="M641.1,506.7c3.4,3.7-2.7,16.8-7.7,19.8-16.3,10-30.9-6.3-19.3-14.3,1.3-.9,26-6.5,27-5.5Z"/>
  <path d="M757.1,591.7v64c4.4-3.1,26.3-33,28.5-33h25.5c-2.1,6.4-32.7,36-32.8,38.5s32.2,38.8,34.8,45.5h-26.5c-2.4,0-24.7-34.7-28.5-39-3.6-.6-1,.5-1,1.5v37.5h-23v-115h23Z"/>
  <path d="M961.1,644.7h-14.5c-4.8,0-13.5,8.4-13.5,13.5v48.5h-22v-83h20c.5,0,.7,8.7,1,9,.5.6,7.5-7.2,12.9-8.6,22.7-5.7,12.4,5.8,16.1,20.6Z"/>
  <path d="M894.1,670.7h-60c1.8,15.8,13.5,23.1,28.8,19.3,5.9-1.5,10.9-9,12.6-9.3,3-.4,17.1,3.3,15.8,8.7-6.5,27.8-76.6,30.4-77.3-23.2-.8-61.7,88.1-57.6,80.1,4.5Z"/>
  <path class="st6" d="M873.1,655.7h-38c2.3-21.7,35.7-21.7,38,0Z"/>
  <path d="M714.1,706.7h-19c-.5,0-.2-7.9-.5-9-14.9,18.8-52.2,13.5-54.5-12.6-3.1-34,51.1-22.5,53.1-34,1.4-8.4-10.7-12-17.4-11.3-11.3,1.1-11.2,10.3-16,10.8s-15.1-2.4-15.7-3c-2.3-2.5,4.5-12.8,6.5-15,17.4-19.7,63.5-11,63.5,16.5v57.5Z"/>
  <path class="st6" d="M693.1,668.7c3,3.6-1.5,16.6-6.7,19.8-17,10.8-31.3-6.4-20.3-14.3,1.3-.9,26.1-6.6,27-5.5Z"/>
  <path class="st4" d="M136.9,316c9.2-1.5,45.4-1.1,53.6,1.9s52.2,53.9,56.1,53.9,45.6-50.5,54.8-54.2c6.2-2.5,51.6-3,58.8-1.4s5,2.8,7.5,4.5c8.4,5.9,50.8,48.7,57.5,57.5s6.9,8.3,7.7,12.3c2.2,10.5,1.9,75,.3,86.8s-.8,5.8-2.6,8.4c-49.9,47.1-95.9,98.2-144.9,146.1-4.7,4.6-35.7,35.3-38.3,35.8-4.7.8-10.2-4.8-13.7-7.9-46.5-40.1-118.8-113.9-159.5-160.5s-13.2-12.8-14.5-19.5-1.7-83.4.3-90.8,3.4-5.6,4.7-7.3c6.3-8,55.3-56.7,62.5-61.5s5.6-3.5,9.8-4.2Z"/>
  <path class="st2" d="M261.1,498.7c12.6-7.6,47.5-52.2,57.5-56.1s18.4,5.2,32.1-6.9c34.3-30.3-19.4-79.5-47-43-13.4,17.7-1.4,30.2-3,36s-60.5,57.2-60.5,62.5v47.5l-65.8-65.7c-.5-1.8-.6-19.2,0-20.6,1.6-4.2,17.7-8,19.5-27.4,4.7-49.8-75.5-41.2-59.7,7.3,4,12.5,18.6,17.8,19.1,19.1,1.5,3.9-1.1,21.7,0,27.9,2.4,14.7,87,84.7,87,91v63.5l-158.8-159.7c-1.1-3.7-1.1-72.9,0-76.6s54.4-57.1,58.2-58.8,39-1.7,42.5-.4c5.2,1.8,39.7,41.6,47.5,48.5,12,10.6,14.2,14.1,28.5,3.5,10.1-7.4,46.6-49.7,53-52s39.1-1,42.5.4,57.7,56.4,58.5,60.5.8,70.3-.3,73.8l-51.8,50.2v-15c0-26.5-47.8-37.1-58.5-8.5-10.1,26.9,14.3,51.1,41.5,42.5-11.6,6.8-76.5,84.5-82,82.5-1.1-41.9-1.1-83.9,0-126Z"/>
  <path class="st6" d="M333.8,421.4c-8,5.4-23.8-5.7-12.7-16.1s22.2,9.6,12.7,16.1Z"/>
  <path class="st5" d="M161.9,412.9c14-1.6,14.7,19.3,2.6,19.8s-16.5-18.2-2.6-19.8Z"/>
  <path class="st8" d="M336.8,521.4c-13,9-26.2-17.1-7.4-16.6s14.4,11.7,7.4,16.6Z"/>
  <path class="st3" d="M261.1,498.7v126c-5.9-2.2,1.8-113.1,0-126Z"/>
  <path class="st4" d="M518.9,584c3.7,1.7,32.6,65.2,36.1,66.6s33.8-61.7,37.2-66.6h30.5v127.6h-24.8v-86.9c-5.5,6.8-34.2,62.4-37.8,63.3s-9.1.2-11.3-1.2c-5.5-3.4-26.4-52.3-34.4-59.9v84.7h-26v-127.6c5.9,1.3,26.6-1.8,30.5,0Z"/>
  <polygon class="st4" points="584.1 409.8 584.1 435.4 520.1 435.4 520.1 472.5 579 472.5 579 499.4 520.1 499.4 520.1 554.5 490.6 554.5 490.6 409.8 584.1 409.8"/>
  <rect x="629.1" y="268.7" width="23" height="113"/>
  <path class="st4" d="M490.6,382.7c8.7-14.3,44.9-132.8,51.8-134.9s27.9-.6,29.1.2l49,134.6h-27.4c-1.4,0-6.4-25.2-10.1-26.3s-52.2-.8-54.7.3-8.7,26.1-10.9,26.1h-26.8Z"/>
  <path class="st6" d="M575.3,342.5h-38.2c3.3-6.3,15.7-54.2,18.5-54.9,2.8-.7,16.4,51,19.7,54.9Z"/>
</svg>